<svg height="37" viewBox="0 0 300 37" width="300" xmlns="http://www.w3.org/2000/svg" xmlns:xlink="http://www.w3.org/1999/xlink"><mask id="a" fill="#fff"><path d="m.43287879 1.2255h18.21363641v35.73675h-18.21363641z" fill="#fff" fill-rule="evenodd"/></mask><mask id="b" fill="#fff"><path d="m0 37.7745h299.483333v-36.2745h-299.483333z" fill="#fff" fill-rule="evenodd"/></mask><g fill="none" fill-rule="evenodd" transform="translate(0 -1)"><path d="m153.361818 22.31775c-2.066666-1.014-3.393939-1.8105-3.986363-2.388-.59091-.5775-.887879-1.233-.887879-1.9665 0-.858.292424-1.554.875757-2.085.583334-.5295 1.356061-.795 2.318182-.795.915152 0 1.7.198 2.354546.5955.65303.399 1.287878 1.098 1.90303 2.097.504545.7965.937879 1.3455 1.301515 1.6515.362121.3045.733333.456 1.110606.456.474243 0 .836364-.1605 1.089394-.48.251515-.3195.378788-.7695.378788-1.347 0-1.4055-.383333-2.748-1.148485-4.0275-.763636-1.281-1.55-1.92-2.35303-1.92-.189394 0-.440909.0465-.757576.141-.315151.093-.701515.2415-1.157576.444-.584848-.141-1.168182-.2415-1.751515-.3045-.583333-.0615-1.166667-.093-1.75-.093-2.39697 0-4.336364.666-5.818182 2.0025-1.483333 1.335-2.224242 3.0645-2.224242 5.187 0 1.545.45 2.8485 1.348485 3.9105s2.633333 2.2245 5.204545 3.489c.345455.171.818182.3975 1.418182.6795 2.759091 1.311 4.140909 2.6535 4.140909 4.0275 0 .906-.316667 1.6275-.94697 2.166-.631818.5385-1.490909.8085-2.578787.8085-.978788 0-1.892425-.1875-2.74394-.5625s-1.522727-.882-2.010606-1.5225c-.25303-.3285-.566667-.819-.94697-1.4745-.772727-1.311-1.536363-1.968-2.293939-1.968-.410606 0-.757576.1755-1.040909.528-.284849.351-.425758.783-.425758 1.299 0 1.203.236364 2.4585.709091 3.7695.472727 1.3125.978788 2.1945 1.515152 2.6475.172727.1395.346969.249.519697.3285.174242.0765.339394.1155.496969.1155.251516 0 .5-.0465.745455-.1395.243939-.0945.5-.243.768182-.4455.977272.1875 1.840909.3315 2.590909.4335.748485.102 1.398485.1515 1.95.1515 2.634848 0 4.830303-.7605 6.589394-2.283 1.757576-1.521 2.636363-3.4155 2.636363-5.679 0-2.6385-2.286363-5.073-6.85909-7.3065z" fill="#9743ff"/><path d="m186.880606 33.888c-.362121-.219-.622727-.5085-.780303-.8685-.157576-.3585-.236364-.951-.236364-1.779v-1.3815c0-1.4355-.007575-2.8875-.022727-4.356-.016667-1.467-.024242-2.2245-.024242-2.271 0-3.669-.695455-6.408-2.081818-8.22-1.387879-1.8105-3.484849-2.7165-6.29091-2.7165-1.027272 0-2.004545.2025-2.934848.609s-1.813636 1.0065-2.648485 1.803c-.283333.2805-.571212.606-.863636.972-.292425.3675-.469697.5505-.531818.5505-.174243 0-.29697-.0615-.366667-.1875-.071212-.1245-.106061-.3195-.106061-.585v-1.194c0-3.294.062121-6.534.187879-9.7185.031818-.579.04697-.921.04697-1.0305 0-.735-.113637-1.254-.342424-1.557-.228788-.306-.618182-.4575-1.171213-.4575-.677272 0-1.437878.0825-2.281818.246-.843939.1635-1.659091.387-2.448485.6675-1.465151.546-2.401515.9765-2.80303 1.2885s-.60303.687-.60303 1.1235c0 .5625.489394.9795 1.466666 1.2525.977273.273 1.553031.519 1.727273.738.251515.3435.428788 1.4055.531818 3.1845.103031 1.7805.153031 5.487.153031 11.124v3.7005 3.981c0 1.779-.090909 3.009-.271212 3.687-.181819.6795-.49394 1.1445-.934849 1.395-.142424.0765-.362121.171-.662121.2805-.789394.2955-1.183334.7095-1.183334 1.2405 0 .7185.39394 1.2105 1.183334 1.476.787879.2655 2.475757.3975 5.062121.3975 2.113636 0 3.571212-.129 4.375758-.387.804545-.2565 1.20606-.6975 1.20606-1.3215 0-.6255-.418182-1.086-1.25303-1.383-.393939-.1395-.701515-.2715-.922727-.3975-.34697-.1875-.587879-.546-.721212-1.077-.134849-.531-.201516-1.617-.201516-3.2565 0-3.1845.071212-5.4.213637-6.6495.140909-1.2495.393939-2.2245.757575-2.9265.424243-.8745 1.034849-1.5735 1.831819-2.097.795454-.522 1.636363-.7845 2.519697-.7845 1.734848 0 2.933333.66 3.595454 1.9785.662121 1.32.992424 4.5945.992424 9.825 0 1.716-.072727 2.9235-.224242 3.618-.15.6945-.413636 1.1505-.792424 1.3695-.219697.126-.528788.258-.922728.3975-.836363.297-1.25303.7575-1.25303 1.383 0 .624.406061 1.065 1.218182 1.3215.812121.258 2.283333.387 4.412121.387 2.601515 0 4.292424-.132 5.072727-.3975.781819-.2655 1.171213-.7575 1.171213-1.476 0-.546-.401516-.9675-1.206061-1.2645-.268182-.093-.480303-.18-.639394-.2565z" fill="#9743ff"/><path d="m18.6465152 5.65125c0-1.2795-.5833334-2.337-1.75-3.1725-1.1681819-.8355-2.6818182-1.254-4.5424243-1.254-2.71060605 0-4.82121211.6885-6.32727272 2.061-1.5060606 1.374-2.25909091 3.2955-2.25909091 5.7615 0 .546.02727273 1.1205.08333334 1.722.05454545.6.19242424 1.32.3030303 2.0055l-2.65606061-.0735c-.37878788 0-.65151515.0885-.81666666.2685-.16515152.18-.24848485.4725-.24848485.8775v.585c0 .4545.07424242.7665.22424242.9375.15.1725.41363637.258.79242424.258h2.76818182v11.802 2.343c0 1.389-.07878788 2.3445-.23636363 2.868-.15909091.5235-.43484849.894-.82878788 1.1115-.14090909.0795-.35303031.1725-.63787879.282-.77272727.2805-1.15909091.6795-1.15909091 1.194 0 .6555.4030303 1.1085 1.20606061 1.359.80454545.249 2.40454545.375 4.80151515.375s3.99848488-.123 4.80303028-.3645c.8030303-.2415 1.2060606-.675 1.2060606-1.299 0-.6405-.4818182-1.1235-1.4439394-1.452-.410606-.141-.7318181-.2655-.9696969-.375-.3303031-.156-.5590909-.5535-.6848485-1.194-.1272727-.6405-.189394-2.0055-.189394-4.098v-12.552h3.5242425c.3787878 0 .65-.0945.8151515-.2805.1666666-.189.2484848-.492.2484848-.915v-.585c0-.4515-.0742424-.7575-.2242424-.9135s-.430303-.2325-.8393939-.2325l-3.55.1425c-.0318182-1.125-.25909095-2.544-.63636367-3.972-.37878788-1.4295-.56818182-2.331-.56818182-2.7045 0-.6405.19242424-1.1595.57878788-1.5585.38636363-.3975.88787881-.597 1.50303031-.597.9606061 0 1.7424242.585 2.3409091 1.7565.1909091.375.3469697.672.4727273.8895.2681818.423.6121212.75 1.0287878.984.4181819.234.8878788.351 1.4075758.351.8060606 0 1.4166667-.198 1.8348485-.597.4166666-.3975.6257576-.9795.6257576-1.7445" fill="#9743ff" mask="url(#a)" transform="translate(110.606061 .2745)"/><path d="m84.995 30.74535c-.6242424 1.6185-1.7287879 2.667-3.3121212 3.1485-1.9545455.5925-3.9030303.0285-5.8439394-1.692-1.9424242-1.7205-3.3469697-4.17-4.2166667-7.347-.5878788-2.148-.5712121-4.0185.0515152-5.6115.6242424-1.593 1.7348485-2.6325 3.3333333-3.117 1.9242424-.585 3.8636364-.021 5.819697 1.6875 1.9545454 1.7085 3.3590909 4.128 4.2166666 7.2585.5909091 2.163.5757576 4.0545-.0484848 5.673m1.3439394-15.5475c-2.2530303-2.142-5.0439394-3.111-8.3757576-2.9025-3.4636363.216-6.2787879 1.611-8.4439394 4.1865-2.1666666 2.5755-3.1454545 5.694-2.9378788 9.3555.2030303 3.6315 1.4681819 6.57 3.7939394 8.8185 2.3257576 2.247 5.1530303 3.2685 8.4848485 3.06 3.3757576-.2115 6.1333333-1.65 8.269697-4.3155 2.1393939-2.6685 3.1015151-5.8875 2.8878788-9.6585-.1984849-3.5535-1.4257576-6.402-3.6787879-8.544" fill="#9743ff"/><path d="m64.7972727 29.85915c-.5196969 0-1.0636363.4995-1.6318182 1.4985-.2045454.36-.3712121.6405-.4969697.8445-.4893939.78-1.0015151 1.3035-1.5378787 1.5675-.5348485.2655-1.5924243.399-3.169697.399h-4.5893939c-.2984849 0-.519697-.039-.6621213-.1185-.1409091-.0765-.2121212-.1935-.2121212-.3495 0-.0795.0227273-.177.0712121-.294.0469697-.117.1181819-.261.2121213-.4335l11.5666666-17.727c.1909091-.312.319697-.558.3909091-.7365.0712121-.18.1060606-.3405.1060606-.4815 0-.39-.1409091-.663-.4257576-.819-.2833333-.156-.8045454-.234-1.560606-.234h-11.4727273c-.7893939 0-1.569697-.114-2.3409091-.339-.7727272-.2265-1.1757576-.3405-1.2075757-.3405-.6939394 0-1.3515152.6435-1.9757576 1.932-.6227273 1.2885-.9333333 2.7045-.9333333 4.251 0 .4995.1060606.897.3196969 1.1925.2121212.2985.4924243.4455.839394.4455.6772727 0 1.3409091-.6 1.9863636-1.803.1424242-.2805.2606061-.4905.3545455-.6315.4575757-.78.9378787-1.296 1.4424242-1.545.5060606-.2505 1.35-.375 2.5318182-.375h3.5242424c.3 0 .5212121.0345.6636364.105.1409091.0705.2121212.1755.2121212.3165 0 .093-.0348485.2385-.1060606.432-.0712121.1965-.169697.3945-.2954546.597l-10.9757575 16.956c-.3318182.5145-.5454546.8895-.639394 1.1235s-.1409091.453-.1409091.6555c0 .4215.1287879.711.389394.867.260606.156.8712121.234 1.8333333.234h12.4666667c1.0727272 0 2.1681818.1245 3.2878788.3735.3.063.4878787.0945.5666666.0945.7106061 0 1.3560606-.6 1.939394-1.803.5848484-1.2015.8757575-2.529.8757575-3.981 0-.546-.1181818-.996-.3545454-1.347-.2363637-.351-.5212121-.5265-.8515152-.5265" fill="#9743ff"/><path d="m33.2424242 32.73975c-.6863636.702-1.8333333 1.0545-3.4424242 1.0545-1.45 0-2.6060606-.3915-3.4651515-1.1715-.8590909-.7815-1.289394-1.8195-1.289394-3.114 0-1.374.4969697-2.4525 1.4909091-3.2325.9924243-.7815 2.3727273-1.17 4.139394-1.17.5363636 0 1.1030303.0345 1.7030303.1035.6.072 1.2212121.177 1.8681818.3165l.0242424 3.6075c0 1.701-.3424242 2.904-1.0287879 3.606m8.3621213.726c-.3151516-.078-.5681819-.1485-.7575758-.2115-.3318182-.093-.5757576-.366-.7333333-.819-.1575758-.4515-.2363637-1.14-.2363637-2.061v-7.8675c0-2.3265-.1030303-3.99-.3075757-4.989-.2045455-.999-.5515152-1.8105-1.0409091-2.4345-.7257576-.906-1.7424243-1.5975-3.0515152-2.073s-2.8787879-.714-4.7060606-.714c-2.9969697 0-5.45.5235-7.3575757 1.569-1.9090909 1.0455-2.8621212 2.334-2.8621212 3.864 0 .702.1924242 1.26.580303 1.674.3848485.414.9015151.6195 1.5484848.6195 1.119697 0 2.1757576-.624 3.169697-1.872.2212121-.282.3939394-.492.519697-.633.6469697-.7335 1.3166666-1.2765 2.0121212-1.6275.6939394-.351 1.4424242-.5265 2.2454545-.5265 1.1666667 0 2.0666667.3855 2.6984849 1.1595.630303.7725.9454545 1.8765.9454545 3.312l-.0242424 2.577c-.8833333-.141-1.7060606-.246-2.4712121-.3165-.7666667-.0705-1.4712121-.105-2.1181818-.105-3.4227273 0-6.0863637.7305-7.9939394 2.19-1.9090909 1.4595-2.8621212 3.4935-2.8621212 6.1005 0 2.232.740909 4.0395 2.2227272 5.421 1.4833334 1.3815 3.4212121 2.0715 5.8181818 2.0715 2.019697 0 4.069697-.6705 6.1515152-2.013.5681818-.36.9227273-.5385 1.0651515-.5385.0454546 0 .4757576.4245 1.2878788 1.275.8121212.852 1.5818182 1.2765 2.3060606 1.2765 1.4666667 0 2.7530303-.315 3.8560606-.948 1.1045455-.6315 1.6560606-1.338 1.6560606-2.118 0-.5475-.519697-.9615-1.560606-1.242" fill="#9743ff"/><path d="m14.8083333 12.29565c-.9318181 0-1.8575757.3435-2.7787878 1.0305-.9242425.687-1.9984849 1.9755-2.83484853 3.2865l-.03939394-.3825c-.01666667-.1095-.04090909-.273-.07121212-.492-.26969697-2.2005-.7969697-3.3015-1.58484849-3.3015-.41060606 0-1.14848484.1365-2.21212121.4095-1.06515151.273-2.16363636.636-3.3 1.089-.74090909.2805-1.25757575.558-1.55.831-.29242424.2745-.43636363.6045-.43636363.996 0 .546.48787878.975 1.46515151 1.287.50454546.156.88333333.297 1.13636364.4215.34545454.204.58787879.759.72121212 1.6635.13333333.906.20151515 2.865.20151515 5.8785v1.428c0 .5145.00757576 1.17.02272727 1.9665.01666667.7965.02424243 1.3425.02424243 1.6395 0 1.233-.08787879 2.124-.26060606 2.67-.17424243.5475-.47272728.936-.89848485 1.1715-.12575758.0615-.3469697.156-.66212121.2805-.78939394.2805-1.18333334.6945-1.18333334 1.2405 0 .7185.40303031 1.2105 1.20606061 1.476.80454545.2655 2.4530303.3975 4.94545454.3975 2.26969697 0 3.86212121-.132 4.77727271-.3975.9136364-.2655 1.3712121-.7035 1.3712121-1.311 0-.657-.4954545-1.14-1.4893939-1.4535-.4106061-.1245-.7333333-.2325-.969697-.327-.44090906-.1875-.76060603-.6405-.95757572-1.359-.19848485-.717-.29545455-1.788-.29545455-3.207 0-4.95.22424242-8.2005.67272727-9.7545.45-1.5525 1.2424242-2.3295 2.3772727-2.3295.189394 0 .3712122.21.5454546.6315.1727272.4215.360606.741.5666666.96.2984849.312.639394.5505 1.0181819.7155.3772727.1635.7954545.246 1.2530303.246.930303 0 1.6545454-.3255 2.1757575-.972.519697-.648.7803031-1.542.7803031-2.682s-.3378788-2.049-1.0166667-2.7285c-.6787879-.678-1.5848485-1.0185-2.719697-1.0185" fill="#9743ff"/><path d="m105.173636 12.29565c-.930303 0-1.857575.3435-2.778788 1.0305-.922727.687-1.998484 1.9755-2.834848 3.2865l-.0393939-.3825c-.0166667-.1095-.039394-.273-.0712122-.492-.2681818-2.2005-.7969697-3.3015-1.5848484-3.3015-.4106061 0-1.1469697.1365-2.2121213.4095-1.0636363.273-2.1636363.636-3.3 1.089-.740909.2805-1.2575757.558-1.5484848.831-.2924242.2745-.4378788.6045-.4378788.996 0 .546.4893939.975 1.4666667 1.287.5045454.156.8833333.297 1.1348485.4215.3469697.204.5878787.759.7212121 1.6635.1348485.906.2015151 2.865.2015151 5.8785v1.428c0 .5145.0075758 1.17.0242425 1.9665.0151515.7965.0227272 1.3425.0227272 1.6395 0 1.233-.0863636 2.124-.2590909 2.67-.1742424.5475-.4727273.936-.8984848 1.1715-.1272728.0615-.3484849.156-.6636364.2805-.7878788.2805-1.1818182.6945-1.1818182 1.2405 0 .7185.4015152 1.2105 1.2060606 1.476.8045455.2655 2.4515152.3975 4.9439394.3975 2.2712121 0 3.8621216-.132 4.7772726-.3975.915152-.2655 1.372727-.7035 1.372727-1.311 0-.657-.496969-1.14-1.490909-1.4535-.409091-.1245-.733333-.2325-.969697-.327-.440909-.1875-.760606-.6405-.9575754-1.359-.1984848-.717-.2954545-1.788-.2954545-3.207 0-4.95.2242424-8.2005.6742419-9.7545.45-1.5525 1.24091-2.3295 2.377273-2.3295.189394 0 .369697.21.54394.6315.172727.4215.362121.741.568181.96.298485.312.637879.5505 1.016667.7155.378788.1635.795455.246 1.254546.246.928787 0 1.654545-.3255 2.175757-.972.519697-.648.780303-1.542.780303-2.682s-.339394-2.049-1.018182-2.7285c-.677272-.678-1.583333-1.0185-2.719697-1.0185" fill="#9743ff"/><path d="m132.063939 10.1226c.631819.5025 1.428788.753 2.390909.753 1.048485 0 1.921213-.279 2.616667-.837.69697-.558 1.045455-1.2345 1.045455-2.031s-.319697-1.458-.959091-1.989c-.637879-.531-1.44697-.7965-2.422727-.7965-1.004546 0-1.860607.294-2.563637.879-.704545.5865-1.054545 1.293-1.054545 2.115 0 .7695.315151 1.404.946969 1.9065" fill="#9743ff"/><path d="m139.397727 34.19145c-.410606-.156-.718182-.288-.922727-.3975-.363636-.1875-.615152-.6015-.756061-1.242-.142424-.6405-.213636-1.7325-.213636-3.2775 0-1.281.031818-3.279.093939-5.9955v-.141l.189394-6.228c.015152-.36.027273-.726.036364-1.101.007576-.375.010606-.8595.010606-1.452 0-.75-.09697-1.281-.295454-1.593-.19697-.312-.516667-.468-.957576-.468-.521212 0-1.395455.1515-2.625758.4575-1.228788.303-2.468182.6975-3.713636 1.182-.709091.2805-1.218182.5655-1.525758.8535-.30606.2895-.462121.6135-.462121.972 0 .5475.498485.9765 1.490909 1.2885.521212.156.907576.297 1.160606.4215.330303.1725.557576.648.684849 1.4295.125757.78.189394 2.4495.189394 5.01v2.5305c0 .5145.007575 1.17.022727 1.9665.016667.7965.024242 1.3425.024242 1.6395 0 1.233-.086363 2.1225-.259091 2.67-.174242.546-.474242.936-.9 1.17-.125757.063-.339394.1485-.639394.258-.80303.297-1.20606.7185-1.20606 1.2645 0 .7185.40606 1.2105 1.218182 1.4745.812121.267 2.472727.399 4.980303.399 2.143939 0 3.618182-.129 4.422727-.387s1.206061-.699 1.206061-1.323-.418182-1.0845-1.253031-1.3815" fill="#9743ff"/><g fill="#000"><path d="m212.925455 20.57715v-4.5735c0-.8265-.25-1.5-.75-2.0205-.5-.5175-1.14394-.7785-1.930303-.7785-.525758 0-.998485.108-1.421213.324-.422727.2175-.784848.5475-1.084848.9885-.224243-.4035-.536364-.723-.940909-.9585-.40303-.2355-.857576-.354-1.362121-.354-.437879 0-.836364.0795-1.195455.2385s-.674242.3915-.945454.699v-.7935h-1.078788v7.2285h1.078788v-5.3805c.222727-.348.492424-.609.807575-.786.315152-.1785.668182-.2685 1.056061-.2685.572727 0 1.030303.189 1.369697.564s.510606.879.510606 1.5135v4.3575h1.062121v-4.5735c0-.1245-.00606-.243-.019697-.3525-.016667-.1125-.033333-.219-.051515-.3255.231818-.384.513636-.678.845455-.879.328787-.2025.693939-.3045 1.092424-.3045.583333 0 1.043939.189 1.383333.564.340909.375.510606.879.510606 1.5135v4.3575z"/><path d="m218.710909 19.66815c-.359091.1335-.757576.2025-1.195454.2025-.54394 0-.987879-.129-1.331819-.384-.345454-.255-.518181-.5835-.518181-.9885 0-.4215.172727-.7605.518181-1.0155.34394-.255.807576-.3825 1.390909-.3825.416667 0 .798485.045 1.14394.1365.343939.0915.666667.2385.969697.4395v1.356c-.292424.2895-.618182.501-.977273.636zm2.024243.909v-4.863c0-.807-.248485-1.4265-.75-1.86-.5-.4335-1.210607-.6495-2.133334-.6495-.448485 0-.893939.0585-1.342424.174-.445455.114-.931818.297-1.457576.5475l.409091.822c.437879-.2205.837879-.3825 1.20303-.483.363637-.1005.725758-.1515 1.084849-.1515.631818 0 1.112121.147 1.442424.4395.330303.294.49697.729.49697 1.305v.954c-.313637-.1545-.65-.2745-1.013637-.3615-.365151-.0855-.740909-.129-1.130303-.129-.892424 0-1.601515.1995-2.127272.597-.524243.4005-.786364.936-.786364 1.6095 0 .6435.25 1.17.75 1.572.501515.405 1.148485.606 1.945455.606.45606 0 .881818-.069 1.275757-.2085.39394-.1395.754546-.348 1.086364-.627v.7065z"/><path d="m225.847879 13.18995c-.445455 0-.84394.1035-1.195455.312-.348485.2055-.630303.498-.843939.8715v-1.0245h-1.078788v7.2285h1.078788v-4.9485c.183333-.4815.44697-.849.786363-1.104.339394-.255.733334-.3825 1.180304-.3825.127272 0 .25303.0135.378787.036.127273.024.253031.0555.380303.0945v-.9825c-.107575-.0375-.213636-.063-.321212-.078-.107575-.015-.228788-.0225-.365151-.0225"/><path d="m234.536364 13.3488h-1.312122l-3.816666 3.261v-6.378l-1.078788.246v10.0995h1.078788v-3.462l3.846969 3.462h1.471213l-4.19697-3.795z"/><path d="m236.889697 14.8071c.462121-.4245 1.007576-.6345 1.639394-.6345.601515 0 1.128788.2175 1.580303.654.45303.438.727273.975.824242 1.6095h-4.881818c.09697-.663.375758-1.2075.837879-1.629m.348485 5.6115c.462121.192.954545.288 1.480303.288.524242 0 1.007576-.075 1.45-.2235.442424-.15.866667-.372 1.274242-.6705l-.669697-.7065c-.243939.21-.543939.375-.904545.489-.359091.117-.727273.174-1.106061.174-.719697 0-1.336363-.2355-1.85-.7065-.516666-.4725-.812121-1.0635-.890909-1.7745h5.990909v-.3315c0-.5205-.090909-1.005-.271212-1.4595-.180303-.4515-.422727-.846-.727273-1.182-.30606-.3345-.671212-.6-1.093939-.792-.421212-.1935-.875758-.2895-1.362121-.2895-.495455 0-.965152.096-1.406061.2895-.442424.192-.822727.4575-1.143939.792-.319697.336-.575758.7305-.765152 1.182-.189394.4545-.283333.939-.283333 1.4595 0 .528.09697 1.0215.290909 1.4775.193939.4575.459091.8535.793939 1.1895.334849.3375.733334.6015 1.19394.795"/><path d="m244.417424 18.96075c0 .567.169697 1.0005.509091 1.299.340909.297.824243.447 1.457576.447.213636 0 .433333-.015.663636-.0435.227273-.0285.433334-.078.618182-.144v-.9375c-.184848.066-.357576.1155-.518182.144-.159091.0285-.340909.0435-.545454.0435-.398485 0-.684849-.0855-.859091-.252-.175758-.1695-.263637-.4455-.263637-.831v-4.428h2.201516v-.909h-2.201516v-2.1075l-1.062121.2745v1.833h-1.574242v.909h1.574242z"/><path d="m249.839545 11.9646c.204546 0 .375758-.072.516667-.216.142424-.1455.210606-.3135.210606-.5055 0-.2025-.068182-.372-.210606-.513-.140909-.1395-.312121-.2085-.516667-.2085-.195454 0-.365151.069-.510606.2085-.145454.141-.218181.3105-.218181.513 0 .192.072727.36.218181.5055.145455.144.315152.216.510606.216"/><path d="m249.3 20.577h1.078788v-7.2285h-1.078788z" mask="url(#b)"/><path d="m256.967727 14.706c.369697.375.553031.879.553031 1.5135v4.3575h1.063636v-4.5735c0-.8265-.260606-1.5-.784849-2.019-.525757-.519-1.2-.7785-2.027272-.7785-.475758 0-.907576.084-1.29697.2505-.387879.168-.722727.417-1.004545.744v-.852h-1.078788v7.2285h1.078788v-5.3235c.213636-.3555.492424-.63.837878-.822.34394-.1935.736364-.2895 1.172728-.2895.622727 0 1.118181.189 1.486363.564" mask="url(#b)"/><path d="m266.309394 18.7014c-.243939.3165-.559091.5625-.94697.7365-.389394.1725-.818182.2595-1.281818.2595-.371212 0-.721212-.0735-1.051515-.216-.328788-.1455-.613636-.3405-.851515-.5865-.237879-.243-.425758-.537-.562121-.879-.134849-.342-.203031-.7035-.203031-1.089 0-.384.068182-.7455.203031-1.0815.136363-.336.324242-.63.562121-.8805s.519697-.4455.845454-.5835c.324243-.141.677273-.21 1.057576-.21.456061 0 .880303.087 1.274242.2595.392425.174.710607.414.954546.7215zm.013636-4.6305c-.330303-.27-.690909-.4785-1.086363-.627-.392425-.15-.798485-.225-1.216667-.225-.515152 0-.995455.096-1.440909.288-.448485.1935-.836364.4545-1.166667.7875-.330303.3315-.590909.723-.780303 1.176-.189394.4515-.283333.9375-.283333 1.4565 0 .5205.093939 1.005.283333 1.4565s.45.8445.780303 1.176.716667.594 1.157576.7875c.442424.192.916667.288 1.422727.288.425758 0 .836364-.072 1.230303-.216.392425-.1455.754546-.351 1.086364-.6225v.9675c0 .6345-.180303 1.116-.539394 1.4415-.359091.3285-.912121.492-1.60303.492-.378788 0-.756061-.054-1.130303-.1575-.372728-.1065-.75-.276-1.187879-.5055l-.49394.837c.407576.2385.859091.4245 1.356061.555.493939.129.995455.195 1.498485.195 1.012121 0 1.789394-.249 2.331818-.744.545455-.495.84394-1.2045.84394-2.1285v-7.3995h-1.062122z" mask="url(#b)"/><path d="m203.339697 27.7395-1.062121.2745v1.8315h-1.574243v.909h1.574243v4.704c0 .5655.169697.999.509091 1.2975s.824242.447 1.457575.447c.212122 0 .433334-.015.663637-.0435.227273-.0285.433333-.0765.616666-.144v-.9375c-.183333.0675-.35606.1155-.516666.144-.160606.03-.340909.0435-.545455.0435-.398485 0-.684848-.084-.860606-.252-.174242-.1695-.262121-.4455-.262121-.8295v-4.4295h2.201515v-.909h-2.201515z" mask="url(#b)"/><path d="m210.465606 29.6862c-.445454 0-.843939.1035-1.195454.312-.348485.2055-.630304.498-.84394.8715v-1.0245h-1.078788v7.2285h1.078788v-4.9485c.183333-.4815.44697-.849.786364-1.104.339394-.2535.733333-.3825 1.181818-.3825.125758 0 .251515.0135.378788.036.125757.024.251515.057.378788.0945v-.981c-.107576-.039-.213637-.0645-.321212-.0795-.107576-.015-.227273-.0225-.365152-.0225" mask="url(#b)"/><path d="m217.273485 35.5296c-.290909.2895-.616667.4995-.977273.6345-.359091.135-.757576.2025-1.193939.2025-.54394 0-.989394-.1275-1.333334-.3825-.345454-.255-.516666-.5835-.516666-.9885 0-.423.171212-.762.516666-1.017.34394-.255.807576-.3825 1.390909-.3825.418182 0 .8.0465 1.145455.1365.342424.093.666667.2385.968182.441zm-1.836364-5.8275c-.446969 0-.893939.057-1.340909.1725s-.931818.2985-1.457576.5475l.409091.8235c.436364-.2205.837879-.3825 1.201515-.483.363637-.102.725758-.1515 1.086364-.1515.630303 0 1.112121.1455 1.442424.4395s.495455.7275.495455 1.305v.9525c-.312121-.153-.65-.2745-1.012121-.3615-.365152-.0855-.740909-.129-1.130303-.129-.89394 0-1.603031.1995-2.127273.5985-.524243.399-.786364.936-.786364 1.6095 0 .6435.25 1.1685.75 1.572s1.148485.6045 1.94394.6045c.457575 0 .881818-.069 1.275757-.2085.39394-.1395.754546-.348 1.086364-.627v.7065h1.048485v-4.8615c0-.8085-.25-1.428-.75-1.86-.5-.4335-1.212122-.6495-2.134849-.6495z" mask="url(#b)"/><path d="m223.592273 29.70165c-.475758 0-.907576.0855-1.29697.252-.387879.168-.722727.417-1.004545.7425v-.8505h-1.078788v7.2285h1.078788v-5.3235c.213636-.357.492424-.63.837878-.822.34394-.1935.736364-.2895 1.172728-.2895.622727 0 1.116666.1875 1.486363.5625s.553031.8805.553031 1.515v4.3575h1.063636v-4.5735c0-.828-.262121-1.5-.786364-2.0205-.524242-.519-1.2-.7785-2.025757-.7785" mask="url(#b)"/><path d="m231.862727 33.0342-1.266666-.1725c-.475758-.0675-.821213-.186-1.034849-.3555-.215151-.1665-.321212-.405-.321212-.7125 0-.3555.157576-.645.474242-.8655.315152-.2205.721213-.333 1.216667-.333.39697 0 .787879.0675 1.172727.2025.383334.135.778788.336 1.186364.606l.569697-.7215c-.448485-.3255-.907576-.567-1.377273-.72-.471212-.1545-.968182-.2325-1.493939-.2325-.79697 0-1.451515.1995-1.966667.6-.516666.399-.772727.9-.772727 1.506 0 .549.177273.984.531818 1.3065.354546.3225.89697.5355 1.624243.642l1.268181.1725c.466667.069.809091.1905 1.027273.3675.218182.1785.328788.4215.328788.729 0 .3855-.184849.6975-.554546.939-.368181.24-.845454.36-1.428787.36-.427273 0-.84697-.084-1.260606-.2535-.412122-.1665-.783334-.405-1.113637-.7125l-.65606.6915c.389394.3555.848484.633 1.377272.8295s1.095455.2955 1.698485.2955c.416667 0 .804546-.0555 1.163637-.165.360606-.111.674242-.2655.940909-.462.268181-.198.475757-.4335.627272-.7065.15-.2745.224243-.5655.224243-.873 0-.549-.180303-.9885-.545455-1.32-.365151-.3315-.910606-.546-1.639394-.642" mask="url(#b)"/><path d="m239.247576 26.2827c-.728788 0-1.287879.1905-1.675758.5685-.389394.381-.583333.9225-.583333 1.6245v1.3695h-1.718182v.909h1.718182v6.3195h1.063636v-6.3195h2.171212v-.909h-2.171212v-1.3425c0-.441.104546-.7665.313637-.972.20909-.207.527272-.3105.954545-.3105.165152 0 .315152.012.451515.036.136364.0255.286364.06.451515.108v-.9525c-.145454-.0465-.295454-.081-.451515-.099-.15606-.0195-.330303-.03-.524242-.03" mask="url(#b)"/><path d="m247.145909 34.5561c-.137879.3405-.322727.639-.562121.894-.236364.255-.519697.4545-.845455.6-.325757.144-.672727.216-1.040909.216-.369697 0-.719697-.072-1.05-.216-.328788-.1455-.613636-.345-.851515-.6s-.425757-.5535-.562121-.894c-.134849-.342-.20303-.7095-.20303-1.1025 0-.396.069697-.7635.212121-1.104.139394-.342.328788-.6375.566666-.888.237879-.2505.519697-.447.845455-.5925.325758-.1425.672727-.216 1.042424-.216.368182 0 .715152.0735 1.040909.216.325758.1455.609091.342.845455.5925.239394.2505.424242.546.562121.888.134849.3405.20303.708.20303 1.104 0 .393-.068181.7605-.20303 1.1025m.181818-3.7725c-.336363-.336-.728788-.6015-1.180303-.7935-.45303-.192-.934848-.288-1.45-.288-.515151 0-1 .096-1.457576.288-.457575.192-.85303.4575-1.187878.7935-.334849.336-.6.7365-.79394 1.197-.193939.462-.290909.9525-.290909 1.473 0 .528.09697 1.023.290909 1.4835.19394.462.459091.8625.79394 1.1985.334848.3375.730303.6015 1.187878.7935.457576.192.942425.288 1.457576.288.515152 0 .99697-.096 1.45-.288.451515-.192.84394-.456 1.180303-.7935.334849-.336.6-.7365.79394-1.1985.193939-.4605.290909-.9555.290909-1.4835 0-.5205-.09697-1.011-.290909-1.473-.19394-.4605-.459091-.861-.79394-1.197" mask="url(#b)"/><path d="m253.12803 29.6862c-.445454 0-.843939.1035-1.195454.312-.348485.2055-.630303.498-.84394.8715v-1.0245h-1.078788v7.2285h1.078788v-4.9485c.183334-.4815.44697-.849.786364-1.104.339394-.2535.733333-.3825 1.180303-.3825.127273 0 .25303.0135.378788.036.127273.024.25303.057.380303.0945v-.981c-.109091-.039-.213636-.0645-.321212-.0795s-.227273-.0225-.365152-.0225" mask="url(#b)"/><path d="m263.538788 29.70165c-.524243 0-.998485.108-1.421212.324-.422728.216-.784849.5475-1.084849.9885-.222727-.4035-.536363-.723-.939394-.9585-.404545-.2355-.857575-.354-1.363636-.354-.436364 0-.834849.0795-1.193939.2385-.360606.159-.675758.3915-.94697.699v-.7935h-1.078788v7.2285h1.078788v-5.382c.224242-.3465.492424-.6075.807576-.786.315151-.177.669697-.267 1.057575-.267.571213 0 1.028788.1875 1.368182.5625.340909.375.510606.8805.510606 1.515v4.3575h1.063637v-4.5735c0-.126-.006061-.243-.021212-.354-.015152-.111-.031819-.219-.051516-.324.233334-.384.515152-.678.845455-.8805s.695454-.303 1.092424-.303c.584849 0 1.04394.1875 1.383333.5625.34091.375.512122.8805.512122 1.515v4.3575h1.063636v-4.5735c0-.828-.251515-1.5-.751515-2.0205-.5-.519-1.143939-.7785-1.930303-.7785" mask="url(#b)"/><path d="m272.981818 35.5296c-.290909.2895-.616666.4995-.977273.6345-.35909.135-.757575.2025-1.193939.2025-.543939 0-.989394-.1275-1.333333-.3825-.345455-.255-.516667-.5835-.516667-.9885 0-.423.171212-.762.516667-1.017.343939-.255.807575-.3825 1.390909-.3825.418182 0 .8.0465 1.143939.1365.34394.093.668182.2385.969697.441zm-1.836363-5.8275c-.44697 0-.89394.057-1.34091.1725-.446969.1155-.931818.2985-1.457575.5475l.407575.8235c.437879-.2205.839394-.3825 1.203031-.483.363636-.102.725757-.1515 1.086363-.1515.630303 0 1.112122.1455 1.442425.4395s.495454.7275.495454 1.305v.9525c-.312121-.153-.65-.2745-1.012121-.3615-.365152-.0855-.742424-.129-1.131818-.129-.892424 0-1.601515.1995-2.125758.5985-.524242.399-.786363.936-.786363 1.6095 0 .6435.25 1.1685.75 1.572s1.148484.6045 1.943939.6045c.457576 0 .881818-.069 1.275758-.2085.393939-.1395.754545-.348 1.086363-.627v.7065h1.048485v-4.8615c0-.8085-.25-1.428-.75-1.86-.5-.4335-1.212121-.6495-2.134848-.6495z" mask="url(#b)"/><path d="m277.929848 27.7395-1.063636.2745v1.8315h-1.572727v.909h1.572727v4.704c0 .5655.169697.999.510606 1.2975.339394.2985.824243.447 1.457576.447.212121 0 .433333-.015.663636-.0435.227273-.0285.433334-.0765.616667-.144v-.9375c-.183333.0675-.356061.1155-.516667.144-.160606.03-.342424.0435-.545454.0435-.398485 0-.684849-.084-.860606-.252-.174243-.1695-.262122-.4455-.262122-.8295v-4.4295h2.201516v-.909h-2.201516z" mask="url(#b)"/><path d="m281.724242 37.074h1.077273v-7.2285h-1.077273z" mask="url(#b)"/><path d="m282.262879 27.01875c-.195455 0-.365152.069-.510606.2085-.145455.1395-.218182.3105-.218182.5115 0 .1935.072727.3615.218182.5055.145454.144.315151.2175.510606.2175.204545 0 .375757-.0735.516666-.2175.14091-.144.210607-.312.210607-.5055 0-.201-.069697-.372-.210607-.5115-.140909-.1395-.312121-.2085-.516666-.2085" mask="url(#b)"/><path d="m290.564394 34.5561c-.136364.3405-.322727.639-.562121.894-.236364.255-.519697.4545-.845455.6-.325757.144-.672727.216-1.040909.216-.369697 0-.719697-.072-1.05-.216-.328788-.1455-.613636-.345-.851515-.6s-.425758-.5535-.562121-.894c-.134849-.342-.203031-.7095-.203031-1.1025 0-.396.069697-.7635.212122-1.104.139394-.342.328788-.6375.566666-.888.237879-.2505.519697-.447.845455-.5925.325757-.1425.672727-.216 1.042424-.216.368182 0 .715152.0735 1.040909.216.325758.1455.609091.342.845455.5925.239394.2505.425757.546.562121.888.134848.3405.20303.708.20303 1.104 0 .393-.068182.7605-.20303 1.1025m.180303-3.7725c-.334849-.336-.727273-.6015-1.178788-.7935-.45303-.192-.934848-.288-1.45-.288-.515151 0-1 .096-1.457576.288-.45606.192-.85303.4575-1.187878.7935-.334849.336-.6.7365-.79394 1.197-.193939.462-.290909.9525-.290909 1.473 0 .528.09697 1.023.290909 1.4835.19394.462.459091.8625.79394 1.1985.334848.3375.731818.6015 1.187878.7935.457576.192.942425.288 1.457576.288.515152 0 .99697-.096 1.45-.288.451515-.192.843939-.456 1.178788-.7935.336364-.336.6-.7365.795455-1.1985.193939-.4605.290909-.9555.290909-1.4835 0-.5205-.09697-1.011-.290909-1.473-.195455-.4605-.459091-.861-.795455-1.197" mask="url(#b)"/><path d="m298.697273 30.48015c-.525758-.519-1.2-.7785-2.025758-.7785-.475757 0-.909091.0855-1.29697.252-.389393.168-.722727.417-1.004545.7425v-.8505h-1.078788v7.2285h1.078788v-5.3235c.212121-.357.490909-.63.836364-.822.343939-.1935.736363-.2895 1.174242-.2895.621212 0 1.116667.1875 1.484849.5625.369697.375.55303.8805.55303 1.515v4.3575h1.065151v-4.5735c0-.828-.262121-1.5-.786363-2.0205" mask="url(#b)"/></g></g></svg>